<mxfile host="65bd71144e">
    <diagram id="cwaYGyIwJcOOH0O-KKqQ" name="Page-1">
        <mxGraphModel dx="1387" dy="978" grid="0" gridSize="10" guides="1" tooltips="1" connect="1" arrows="1" fold="1" page="1" pageScale="1" pageWidth="850" pageHeight="1100" background="#ffffff" math="0" shadow="0">
            <root>
                <mxCell id="0"/>
                <mxCell id="1" parent="0"/>
                <mxCell id="2" value="" style="shadow=0;dashed=0;html=1;strokeColor=none;fillColor=#4495D1;labelPosition=center;verticalLabelPosition=bottom;verticalAlign=top;align=center;outlineConnect=0;shape=mxgraph.veeam.2d.web_ui;" vertex="1" parent="1">
                    <mxGeometry x="61" y="169" width="250" height="250" as="geometry"/>
                </mxCell>
                <mxCell id="3" value="" style="sketch=0;html=1;dashed=0;whitespace=wrap;fillColor=#009900;strokeColor=#000000;points=[[0.005,0.63,0],[0.1,0.2,0],[0.9,0.2,0],[0.5,0,0],[0.995,0.63,0],[0.72,0.99,0],[0.5,1,0],[0.28,0.99,0]];verticalLabelPosition=bottom;align=center;verticalAlign=top;shape=mxgraph.kubernetes.icon;prIcon=api" vertex="1" parent="1">
                    <mxGeometry x="543" y="169" width="168" height="212" as="geometry"/>
                </mxCell>
                <mxCell id="5" value="&lt;font style=&quot;font-size: 24px;&quot;&gt;&lt;b&gt;Opendata&lt;br&gt;Bordeaux&lt;br&gt;Métropole&lt;/b&gt;&lt;/font&gt;" style="ellipse;shape=cloud;whiteSpace=wrap;html=1;align=center;fillColor=#eeeeee;strokeColor=#000000;fontColor=#000000;strokeWidth=4;" vertex="1" parent="1">
                    <mxGeometry x="550" y="770" width="260" height="190" as="geometry"/>
                </mxCell>
                <mxCell id="9" value="" style="group" vertex="1" connectable="0" parent="1">
                    <mxGeometry x="290" y="470" width="190" height="200" as="geometry"/>
                </mxCell>
                <mxCell id="4" value="&lt;div style=&quot;font-size: 26px;&quot;&gt;&lt;font color=&quot;#ffffff&quot; style=&quot;font-size: 26px;&quot;&gt;&lt;b style=&quot;&quot;&gt;&lt;span style=&quot;background-color: initial;&quot;&gt;BDD serveur&lt;/span&gt;&lt;br&gt;&lt;/b&gt;&lt;/font&gt;&lt;/div&gt;&lt;div style=&quot;font-size: 26px;&quot;&gt;&lt;span style=&quot;background-color: initial;&quot;&gt;&lt;font color=&quot;#ffffff&quot; style=&quot;font-size: 26px;&quot;&gt;&lt;b&gt;&lt;br&gt;&lt;/b&gt;&lt;/font&gt;&lt;/span&gt;&lt;/div&gt;&lt;div style=&quot;font-size: 26px;&quot;&gt;&lt;font color=&quot;#ffffff&quot; style=&quot;font-size: 26px;&quot;&gt;&lt;b&gt;&lt;br&gt;&lt;/b&gt;&lt;/font&gt;&lt;/div&gt;&lt;div style=&quot;font-size: 26px;&quot;&gt;&lt;span style=&quot;background-color: initial;&quot;&gt;&lt;br&gt;&lt;/span&gt;&lt;/div&gt;" style="shape=cylinder3;whiteSpace=wrap;html=1;boundedLbl=1;backgroundOutline=1;size=15;align=center;strokeWidth=6;strokeColor=#000000;fillColor=#4D4D4D;" vertex="1" parent="9">
                    <mxGeometry width="190" height="200" as="geometry"/>
                </mxCell>
                <mxCell id="7" value="" style="verticalLabelPosition=bottom;html=1;verticalAlign=top;align=center;strokeColor=none;fillColor=#00BEF2;shape=mxgraph.azure.sql_reporting;fontSize=29;fontColor=#000000;" vertex="1" parent="9">
                    <mxGeometry x="105" y="95.65217391304347" width="75" height="82.6086956521739" as="geometry"/>
                </mxCell>
                <mxCell id="8" value="" style="verticalLabelPosition=bottom;html=1;verticalAlign=top;align=center;strokeColor=none;fillColor=#00BEF2;shape=mxgraph.azure.sql_database;fontSize=29;fontColor=#000000;" vertex="1" parent="9">
                    <mxGeometry x="17" y="95.65217391304347" width="70" height="82.6086956521739" as="geometry"/>
                </mxCell>
                <mxCell id="11" value="&lt;font style=&quot;font-size: 18px;&quot;&gt;&lt;b&gt;Données &lt;br&gt;VCub&lt;/b&gt;&lt;/font&gt;" style="whiteSpace=wrap;html=1;shape=mxgraph.basic.document;strokeColor=#006EAF;strokeWidth=4;fontSize=13;fontColor=#ffffff;fillColor=#1ba1e2;" vertex="1" parent="1">
                    <mxGeometry x="560" y="660" width="90" height="100" as="geometry"/>
                </mxCell>
                <mxCell id="12" value="&lt;span style=&quot;font-size: 18px;&quot;&gt;&lt;b&gt;Données&lt;br&gt;EP&lt;/b&gt;&lt;/span&gt;" style="whiteSpace=wrap;html=1;shape=mxgraph.basic.document;strokeColor=#006EAF;strokeWidth=4;fontSize=13;fontColor=#ffffff;fillColor=#1ba1e2;" vertex="1" parent="1">
                    <mxGeometry x="660" y="660" width="90" height="100" as="geometry"/>
                </mxCell>
                <mxCell id="32" value="" style="endArrow=none;html=1;fontSize=26;fontColor=#000000;exitX=0.4;exitY=0.1;exitDx=0;exitDy=0;exitPerimeter=0;entryX=0.5;entryY=1;entryDx=0;entryDy=0;entryPerimeter=0;fillColor=#60a917;strokeColor=#000000;strokeWidth=3;" edge="1" parent="1" source="5" target="11">
                    <mxGeometry width="50" height="50" relative="1" as="geometry">
                        <mxPoint x="400" y="620" as="sourcePoint"/>
                        <mxPoint x="450" y="570" as="targetPoint"/>
                        <Array as="points">
                            <mxPoint x="620" y="780"/>
                        </Array>
                    </mxGeometry>
                </mxCell>
                <mxCell id="33" value="" style="endArrow=none;html=1;fontSize=26;fontColor=#000000;exitX=0.625;exitY=0.2;exitDx=0;exitDy=0;exitPerimeter=0;entryX=0.5;entryY=1;entryDx=0;entryDy=0;entryPerimeter=0;strokeWidth=3;strokeColor=#000000;" edge="1" parent="1" source="5" target="12">
                    <mxGeometry width="50" height="50" relative="1" as="geometry">
                        <mxPoint x="400" y="620" as="sourcePoint"/>
                        <mxPoint x="450" y="570" as="targetPoint"/>
                        <Array as="points">
                            <mxPoint x="713" y="780"/>
                        </Array>
                    </mxGeometry>
                </mxCell>
                <mxCell id="37" value="" style="endArrow=block;html=1;fontSize=26;fontColor=#000000;exitX=0.5;exitY=0;exitDx=0;exitDy=0;exitPerimeter=0;entryX=1.009;entryY=0.65;entryDx=0;entryDy=0;entryPerimeter=0;fillColor=#60a917;strokeColor=#000000;strokeWidth=3;curved=1;endFill=1;shadow=0;" edge="1" parent="1" source="12" target="4">
                    <mxGeometry width="50" height="50" relative="1" as="geometry">
                        <mxPoint x="615" y="670" as="sourcePoint"/>
                        <mxPoint x="510" y="580" as="targetPoint"/>
                        <Array as="points">
                            <mxPoint x="700" y="630"/>
                            <mxPoint x="630" y="590"/>
                            <mxPoint x="530" y="590"/>
                        </Array>
                    </mxGeometry>
                </mxCell>
                <mxCell id="39" value="&lt;b style=&quot;&quot;&gt;&lt;font style=&quot;font-size: 28px;&quot;&gt;IGN&lt;/font&gt;&lt;/b&gt;" style="ellipse;shape=cloud;whiteSpace=wrap;html=1;align=center;fillColor=#eeeeee;strokeColor=#000000;fontColor=#000000;strokeWidth=4;" vertex="1" parent="1">
                    <mxGeometry x="330" y="830" width="230" height="170" as="geometry"/>
                </mxCell>
                <mxCell id="40" value="&lt;span style=&quot;font-size: 18px;&quot;&gt;&lt;b&gt;IRIS-GE&lt;/b&gt;&lt;/span&gt;" style="whiteSpace=wrap;html=1;shape=mxgraph.basic.document;strokeColor=#006EAF;strokeWidth=4;fontSize=13;fontColor=#ffffff;fillColor=#1ba1e2;" vertex="1" parent="1">
                    <mxGeometry x="410" y="710" width="90" height="100" as="geometry"/>
                </mxCell>
                <mxCell id="41" value="" style="endArrow=none;html=1;fontSize=26;fontColor=#000000;exitX=0.48;exitY=0.087;exitDx=0;exitDy=0;exitPerimeter=0;entryX=0.5;entryY=1;entryDx=0;entryDy=0;entryPerimeter=0;fillColor=#60a917;strokeColor=#000000;strokeWidth=3;" edge="1" parent="1" source="39" target="40">
                    <mxGeometry width="50" height="50" relative="1" as="geometry">
                        <mxPoint x="644" y="799" as="sourcePoint"/>
                        <mxPoint x="615" y="770" as="targetPoint"/>
                        <Array as="points">
                            <mxPoint x="460" y="830"/>
                        </Array>
                    </mxGeometry>
                </mxCell>
                <mxCell id="42" value="" style="endArrow=block;html=1;fontSize=26;fontColor=#000000;exitX=0.5;exitY=0;exitDx=0;exitDy=0;exitPerimeter=0;fillColor=#cdeb8b;strokeColor=#000000;strokeWidth=3;curved=1;endFill=1;shadow=0;entryX=0.855;entryY=1;entryDx=0;entryDy=-4.35;entryPerimeter=0;" edge="1" parent="1" source="40" target="4">
                    <mxGeometry width="50" height="50" relative="1" as="geometry">
                        <mxPoint x="615" y="670" as="sourcePoint"/>
                        <mxPoint x="450" y="660" as="targetPoint"/>
                        <Array as="points">
                            <mxPoint x="452" y="690"/>
                        </Array>
                    </mxGeometry>
                </mxCell>
                <mxCell id="44" value="&lt;span style=&quot;font-size: 16px;&quot;&gt;&lt;b style=&quot;&quot;&gt;Leaflet&lt;/b&gt;&lt;/span&gt;&lt;span style=&quot;font-size: 16px;&quot;&gt;&lt;b&gt;&lt;br&gt;PNG&lt;br&gt;&lt;/b&gt;&lt;/span&gt;" style="whiteSpace=wrap;html=1;shape=mxgraph.basic.document;strokeColor=#666600;strokeWidth=4;fontSize=13;fontColor=#ffffff;fillColor=#E6BE3C;" vertex="1" parent="1">
                    <mxGeometry x="384" y="188" width="90" height="100" as="geometry"/>
                </mxCell>
                <mxCell id="45" value="" style="endArrow=block;html=1;fontSize=26;fontColor=#000000;exitX=0;exitY=0.5;exitDx=0;exitDy=0;exitPerimeter=0;fillColor=#cdeb8b;strokeColor=#000000;strokeWidth=3;curved=1;endFill=1;shadow=0;" edge="1" parent="1" source="44" target="2">
                    <mxGeometry width="50" height="50" relative="1" as="geometry">
                        <mxPoint x="445" y="710" as="sourcePoint"/>
                        <mxPoint x="442.42499999999995" y="643.5999999999999" as="targetPoint"/>
                        <Array as="points"/>
                    </mxGeometry>
                </mxCell>
                <mxCell id="47" value="" style="endArrow=none;html=1;fontSize=26;fontColor=#000000;entryX=1;entryY=0.5;entryDx=0;entryDy=0;entryPerimeter=0;fillColor=#60a917;strokeColor=#000000;strokeWidth=3;exitX=0.07;exitY=0.38;exitDx=0;exitDy=0;exitPerimeter=0;" edge="1" parent="1" source="3" target="44">
                    <mxGeometry width="50" height="50" relative="1" as="geometry">
                        <mxPoint x="443.75" y="864" as="sourcePoint"/>
                        <mxPoint x="445" y="810" as="targetPoint"/>
                        <Array as="points">
                            <mxPoint x="508" y="238"/>
                        </Array>
                    </mxGeometry>
                </mxCell>
                <mxCell id="48" value="" style="endArrow=block;html=1;fontSize=26;fontColor=#000000;exitX=0.5;exitY=0;exitDx=0;exitDy=0;exitPerimeter=0;fillColor=#60a917;strokeColor=#000000;strokeWidth=3;curved=1;endFill=1;shadow=0;" edge="1" parent="1" source="11">
                    <mxGeometry width="50" height="50" relative="1" as="geometry">
                        <mxPoint x="715" y="670" as="sourcePoint"/>
                        <mxPoint x="480" y="630" as="targetPoint"/>
                        <Array as="points">
                            <mxPoint x="550" y="630"/>
                        </Array>
                    </mxGeometry>
                </mxCell>
                <mxCell id="51" value="&lt;span style=&quot;font-size: 16px;&quot;&gt;&lt;b&gt;JSON&lt;br&gt;GeoJSON&lt;br&gt;&lt;/b&gt;&lt;/span&gt;" style="whiteSpace=wrap;html=1;shape=mxgraph.basic.document;strokeColor=#666600;strokeWidth=4;fontSize=13;fontColor=#ffffff;fillColor=#E6BE3C;" vertex="1" parent="1">
                    <mxGeometry x="384" y="300" width="90" height="100" as="geometry"/>
                </mxCell>
                <mxCell id="52" value="" style="endArrow=block;html=1;fontSize=26;fontColor=#000000;exitX=0;exitY=0.5;exitDx=0;exitDy=0;exitPerimeter=0;fillColor=#cdeb8b;strokeColor=#000000;strokeWidth=3;curved=1;endFill=1;shadow=0;entryX=1;entryY=0.684;entryDx=0;entryDy=0;entryPerimeter=0;" edge="1" parent="1" source="51" target="2">
                    <mxGeometry width="50" height="50" relative="1" as="geometry">
                        <mxPoint x="394" y="248" as="sourcePoint"/>
                        <mxPoint x="321" y="268.64646464646466" as="targetPoint"/>
                        <Array as="points"/>
                    </mxGeometry>
                </mxCell>
                <mxCell id="53" value="" style="endArrow=block;html=1;fontSize=26;fontColor=#000000;fillColor=#cdeb8b;strokeColor=#000000;strokeWidth=3;curved=1;endFill=1;shadow=0;entryX=0.099;entryY=0.68;entryDx=0;entryDy=0;entryPerimeter=0;" edge="1" parent="1" target="3">
                    <mxGeometry width="50" height="50" relative="1" as="geometry">
                        <mxPoint x="472" y="350" as="sourcePoint"/>
                        <mxPoint x="532" y="336" as="targetPoint"/>
                        <Array as="points">
                            <mxPoint x="525" y="337"/>
                        </Array>
                    </mxGeometry>
                </mxCell>
                <mxCell id="59" value="" style="group;fillColor=#1ba1e2;fontColor=#ffffff;strokeColor=#006EAF;" vertex="1" connectable="0" parent="1">
                    <mxGeometry x="547" y="411" width="278" height="142" as="geometry"/>
                </mxCell>
                <mxCell id="60" value="" style="rounded=0;whiteSpace=wrap;html=1;strokeColor=#006EAF;strokeWidth=6;fontSize=28;fontColor=#ffffff;fillColor=#1ba1e2;" vertex="1" parent="59">
                    <mxGeometry x="-10" y="-10" width="288" height="152" as="geometry"/>
                </mxCell>
                <mxCell id="55" value="&lt;span style=&quot;font-size: 18px;&quot;&gt;&lt;b&gt;Config&lt;br&gt;VCub&lt;br&gt;&lt;/b&gt;&lt;/span&gt;" style="whiteSpace=wrap;html=1;shape=mxgraph.basic.document;strokeColor=#000033;strokeWidth=4;fontSize=13;fontColor=#ffffff;fillColor=#003366;" vertex="1" parent="59">
                    <mxGeometry width="72" height="60" as="geometry"/>
                </mxCell>
                <mxCell id="56" value="&lt;span style=&quot;font-size: 18px;&quot;&gt;&lt;b&gt;Config&lt;br&gt;EP&lt;/b&gt;&lt;/span&gt;&lt;span style=&quot;color: rgba(0, 0, 0, 0); font-family: monospace; font-size: 0px; text-align: start;&quot;&gt;%3CmxGraphModel%3E%3Croot%3E%3CmxCell%20id%3D%220%22%2F%3E%3CmxCell%20id%3D%221%22%20parent%3D%220%22%2F%3E%3CmxCell%20id%3D%222%22%20value%3D%22%26lt%3Bspan%20style%3D%26quot%3Bfont-size%3A%2018px%3B%26quot%3B%26gt%3B%26lt%3Bb%26gt%3BConfig%26lt%3Bbr%26gt%3BVCub%26lt%3Bbr%26gt%3B%26lt%3B%2Fb%26gt%3B%26lt%3B%2Fspan%26gt%3B%22%20style%3D%22whiteSpace%3Dwrap%3Bhtml%3D1%3Bshape%3Dmxgraph.basic.document%3BstrokeColor%3D%23000033%3BstrokeWidth%3D4%3BfontSize%3D13%3BfontColor%3D%23ffffff%3BfillColor%3D%23003366%3B%22%20vertex%3D%221%22%20parent%3D%221%22%3E%3CmxGeometry%20x%3D%22515%22%20y%3D%22425%22%20width%3D%2272%22%20height%3D%22100%22%20as%3D%22geometry%22%2F%3E%3C%2FmxCell%3E%3C%2Froot%3E%3C%2FmxGraphModel%3E&lt;/span&gt;&lt;span style=&quot;font-size: 18px;&quot;&gt;&lt;b&gt;&lt;br&gt;&lt;/b&gt;&lt;/span&gt;" style="whiteSpace=wrap;html=1;shape=mxgraph.basic.document;strokeColor=#000033;strokeWidth=4;fontSize=13;fontColor=#ffffff;fillColor=#003366;" vertex="1" parent="59">
                    <mxGeometry x="78" width="72" height="60" as="geometry"/>
                </mxCell>
                <mxCell id="57" value="&lt;span style=&quot;font-size: 18px;&quot;&gt;&lt;b&gt;Estimations&lt;br&gt;&lt;/b&gt;&lt;/span&gt;" style="whiteSpace=wrap;html=1;shape=mxgraph.basic.document;strokeColor=#000033;strokeWidth=4;fontSize=13;fontColor=#ffffff;fillColor=#003366;" vertex="1" parent="59">
                    <mxGeometry x="149" y="67" width="120" height="65" as="geometry"/>
                </mxCell>
                <mxCell id="58" value="&lt;span style=&quot;font-size: 18px;&quot;&gt;&lt;b&gt;Données géo&lt;br&gt;&lt;/b&gt;&lt;/span&gt;" style="whiteSpace=wrap;html=1;shape=mxgraph.basic.document;strokeColor=#000033;strokeWidth=4;fontSize=13;fontColor=#ffffff;fillColor=#003366;" vertex="1" parent="59">
                    <mxGeometry y="67" width="142" height="65" as="geometry"/>
                </mxCell>
                <mxCell id="63" value="&lt;span style=&quot;font-size: 18px;&quot;&gt;&lt;b&gt;Données&lt;br&gt;utilisateur&lt;br&gt;&lt;/b&gt;&lt;/span&gt;" style="whiteSpace=wrap;html=1;shape=mxgraph.basic.document;strokeColor=#000033;strokeWidth=4;fontSize=13;fontColor=#ffffff;fillColor=#003366;" vertex="1" parent="59">
                    <mxGeometry x="156" width="112" height="60" as="geometry"/>
                </mxCell>
                <mxCell id="61" value="" style="shape=flexArrow;endArrow=classic;html=1;shadow=0;strokeColor=#B20000;strokeWidth=5;fontSize=28;fontColor=#FFFFFF;curved=1;entryX=0.549;entryY=0.873;entryDx=0;entryDy=0;entryPerimeter=0;exitX=0.345;exitY=-0.008;exitDx=0;exitDy=0;exitPerimeter=0;fillColor=#e51400;" edge="1" parent="1" source="60" target="3">
                    <mxGeometry width="50" height="50" relative="1" as="geometry">
                        <mxPoint x="398" y="583" as="sourcePoint"/>
                        <mxPoint x="448" y="533" as="targetPoint"/>
                    </mxGeometry>
                </mxCell>
                <mxCell id="62" value="" style="shape=flexArrow;endArrow=classic;html=1;shadow=0;strokeColor=#B20000;strokeWidth=5;fontSize=28;fontColor=#FFFFFF;curved=1;entryX=1;entryY=0;entryDx=0;entryDy=57.5;entryPerimeter=0;fillColor=#e51400;" edge="1" parent="1" target="4">
                    <mxGeometry width="50" height="50" relative="1" as="geometry">
                        <mxPoint x="537" y="528" as="sourcePoint"/>
                        <mxPoint x="448" y="533" as="targetPoint"/>
                    </mxGeometry>
                </mxCell>
                <mxCell id="64" value="&lt;font style=&quot;font-size: 20px;&quot;&gt;&lt;b&gt;Interface Utilisateur&lt;/b&gt;&lt;/font&gt;" style="text;html=1;strokeColor=none;fillColor=none;align=center;verticalAlign=middle;whiteSpace=wrap;rounded=0;strokeWidth=6;fontSize=28;fontColor=#FFFFFF;" vertex="1" parent="1">
                    <mxGeometry x="75" y="181" width="197" height="32" as="geometry"/>
                </mxCell>
                <mxCell id="67" value="" style="group" vertex="1" connectable="0" parent="1">
                    <mxGeometry x="43" y="674" width="200" height="202" as="geometry"/>
                </mxCell>
                <mxCell id="65" value="" style="verticalLabelPosition=bottom;html=1;verticalAlign=top;align=center;strokeColor=#314354;fillColor=#647687;shape=mxgraph.azure.computer;pointerEvents=1;strokeWidth=6;fontSize=20;fontColor=#ffffff;" vertex="1" parent="67">
                    <mxGeometry width="200" height="202" as="geometry"/>
                </mxCell>
                <mxCell id="66" value="&lt;font color=&quot;#4d4d4d&quot; size=&quot;1&quot;&gt;&lt;b style=&quot;font-size: 24px;&quot;&gt;Utilisateur&lt;/b&gt;&lt;/font&gt;" style="text;html=1;strokeColor=none;fillColor=none;align=center;verticalAlign=middle;whiteSpace=wrap;rounded=0;strokeWidth=6;fontSize=20;fontColor=#FFFFFF;" vertex="1" parent="67">
                    <mxGeometry x="70" y="65" width="60" height="30" as="geometry"/>
                </mxCell>
                <mxCell id="68" value="" style="endArrow=block;html=1;fontSize=26;fontColor=#000000;exitX=0.5;exitY=0;exitDx=0;exitDy=0;exitPerimeter=0;fillColor=#cdeb8b;strokeColor=#000000;strokeWidth=3;curved=1;endFill=1;shadow=0;startArrow=block;startFill=1;" edge="1" parent="1" source="65" target="2">
                    <mxGeometry width="50" height="50" relative="1" as="geometry">
                        <mxPoint x="465" y="720" as="sourcePoint"/>
                        <mxPoint x="462.45000000000005" y="675.6500000000001" as="targetPoint"/>
                        <Array as="points">
                            <mxPoint x="122" y="580"/>
                            <mxPoint x="168" y="500"/>
                        </Array>
                    </mxGeometry>
                </mxCell>
                <mxCell id="69" value="" style="endArrow=block;html=1;fontSize=26;fontColor=#000000;exitX=0;exitY=0.5;exitDx=0;exitDy=0;exitPerimeter=0;fillColor=#cdeb8b;strokeColor=#000000;strokeWidth=3;curved=1;endFill=1;shadow=0;entryX=1.015;entryY=0.351;entryDx=0;entryDy=0;entryPerimeter=0;" edge="1" parent="1" source="70" target="65">
                    <mxGeometry width="50" height="50" relative="1" as="geometry">
                        <mxPoint x="394" y="248" as="sourcePoint"/>
                        <mxPoint x="321" y="268.64646464646466" as="targetPoint"/>
                        <Array as="points">
                            <mxPoint x="339" y="733"/>
                        </Array>
                    </mxGeometry>
                </mxCell>
                <mxCell id="70" value="&lt;span style=&quot;font-size: 18px;&quot;&gt;&lt;b&gt;Config&lt;br&gt;VCub&lt;br&gt;&lt;/b&gt;&lt;/span&gt;" style="whiteSpace=wrap;html=1;shape=mxgraph.basic.document;strokeColor=#000033;strokeWidth=4;fontSize=13;fontColor=#ffffff;fillColor=#003366;" vertex="1" parent="1">
                    <mxGeometry x="286" y="706" width="72" height="60" as="geometry"/>
                </mxCell>
                <mxCell id="72" value="" style="endArrow=none;html=1;fontSize=26;fontColor=#000000;exitX=0.5;exitY=0;exitDx=0;exitDy=0;exitPerimeter=0;fillColor=#60a917;strokeColor=#000000;strokeWidth=3;fontStyle=1" edge="1" parent="1" source="70" target="4">
                    <mxGeometry width="50" height="50" relative="1" as="geometry">
                        <mxPoint x="664" y="799" as="sourcePoint"/>
                        <mxPoint x="336" y="700" as="targetPoint"/>
                        <Array as="points"/>
                    </mxGeometry>
                </mxCell>
            </root>
        </mxGraphModel>
    </diagram>
</mxfile>
